<svg width="150" height="150" viewBox="0 0 150 150" fill="none" xmlns="http://www.w3.org/2000/svg"><g clip-path="url(#a)" fill="#64646A"><path d="M45 104c-4-2-6-6-6-11 0-20 16-37 36-37h15l1-11H6l6 101c0 2 2 4 4 4h27c-3-4-4-8-4-13 0-6 3-11 8-13a17 17 0 0 1 0-19l-2-1ZM48 36h44a4 4 0 1 0 0-9H56L68 9h15a4 4 0 1 0 0-9H66l-4 2-16 25H4a4 4 0 1 0 0 9h44Z"/><path d="M47 93c0 2 2 4 5 4h94c2 0 4-2 4-4 0-15-12-28-28-28H75c-15 0-28 13-28 28ZM62 106a9 9 0 1 0 0 18h73a9 9 0 0 0 0-18H62ZM146 132H52c-3 0-5 2-5 5 0 7 6 13 14 13h76c7 0 13-6 13-13 0-3-2-5-4-5Z"/></g><defs><clipPath id="a"><path fill="#fff" d="M0 0h150v150H0z"/></clipPath></defs></svg>