<svg width="150" height="150" viewBox="0 0 150 150" fill="none" xmlns="http://www.w3.org/2000/svg"><g clip-path="url(#a)"><path d="M116 52c-2-1-2-3-2-5a40 40 0 1 0-79 0c0 2 0 4-2 5-4 3-6 8-6 13 1 14 18 19 26 9h1l2 4v6l2 7c6 5 16 1 16-7V69c0-3 4-5 6-3l2 3v8c0 5 4 9 9 9 7 0 8-6 8-9a15 15 0 1 0 17-25ZM68 21l-3 1c-3 0-3-4-1-5l3-1a3 3 0 1 1 1 5ZM53 37c-2 0-3-1-3-3l5-10a3 3 0 0 1 4 3l-4 8-2 2Zm51 47c2 0 3 2 2 3l-22 57c-4 8-16 8-19 0L43 87c-1-1 0-3 2-3l3-1c1 0 3 1 3 3s1 5 4 8c8 8 20 4 23-5 0-2 2-2 4-1 6 5 16 4 20-3l2-1Z" fill="#64646A"/></g><defs><clipPath id="a"><path fill="#fff" d="M0 0h150v150H0z"/></clipPath></defs></svg>